<svg width="240" height="29" viewBox="0 0 240 29" fill="none" xmlns="http://www.w3.org/2000/svg">
<g id="Component 3">
<g id="Vector">
<path d="M25.772 0.5L19.8557 28.0113H12.7273L13.1025 26.0277L13.0159 25.9415C11.9481 26.9476 10.9668 27.6088 10.0721 27.9825C9.20635 28.3275 8.16739 28.5 6.95527 28.5C4.70418 28.5 2.97258 27.7526 1.76046 26.2577C0.606061 24.7628 0 22.7505 0 20.2207C0 16.8285 0.894661 13.8963 2.71284 11.3953C4.50216 8.89425 6.78211 7.62936 9.55267 7.62936C12.381 7.62936 14.4877 8.66427 15.9307 10.7628L18.0952 0.5H25.772ZM10.101 23.4692C11.5152 23.4692 12.6118 22.6643 13.3622 21.0832C14.1126 19.5021 14.5166 17.8922 14.5166 16.2248C14.5166 15.0749 14.228 14.1838 13.6219 13.6088C13.0159 13.0339 12.3521 12.7464 11.5729 12.7464C10.4473 12.7464 9.49495 13.4651 8.68687 14.8737C7.87879 16.3111 7.47475 18.0359 7.47475 20.0195C7.47475 21.1407 7.70563 22.0031 8.19625 22.578C8.68687 23.1817 9.32179 23.4692 10.101 23.4692Z" fill="#1D8946"/>
<path d="M31.4286 9.52669C32.2944 8.83676 33.1313 8.3768 33.9394 8.08932C34.7475 7.80185 35.7287 7.65811 36.9408 7.65811C39.2496 7.65811 40.9812 8.43429 42.1645 9.98665C43.3478 11.539 43.925 13.5513 43.925 15.9949C43.925 19.1571 43.0592 22.0318 41.2987 24.6191C39.5382 27.2064 37.2294 28.5 34.3434 28.5287C31.3709 28.5287 29.1486 27.2926 27.7056 24.7916L26.9841 28.0688H19.8557L25.6566 0.5H33.3333L31.4286 9.52669ZM32.381 23.3255C33.4776 23.3255 34.43 22.6355 35.2381 21.2556C36.0462 19.8758 36.4502 18.1222 36.4502 16.0236C36.4502 13.7813 35.5556 12.6602 33.7374 12.6602C32.4387 12.6602 31.3709 13.4076 30.5916 14.9025C29.8124 16.3973 29.4084 18.0359 29.4084 19.847C29.4084 20.9969 29.697 21.8593 30.303 22.463C30.938 23.038 31.6017 23.3255 32.381 23.3255Z" fill="#F4742C"/>
<path d="M73.5642 5.81827L69.0332 26.7752H63.6075L63.8961 25.2515L63.8384 25.194C63.0014 25.9702 62.2799 26.4589 61.6162 26.7464C60.9524 27.0051 60.1732 27.1489 59.2496 27.1489C57.518 27.1489 56.2193 26.5739 55.2958 25.4528C54.3723 24.3029 53.9105 22.7793 53.9105 20.8532C53.9105 18.2659 54.6032 16.0236 55.9596 14.1263C57.3449 12.229 59.0765 11.2515 61.1544 11.2515C63.29 11.2515 64.9062 12.0565 66.0029 13.6376L67.6768 5.81827H73.5642ZM61.6162 23.3255C62.684 23.3255 63.5209 22.7218 64.0981 21.5144C64.6753 20.307 64.9639 19.0708 64.9639 17.806C64.9639 16.9148 64.733 16.2536 64.2713 15.8224C63.8095 15.3912 63.29 15.1612 62.7128 15.1612C61.847 15.1612 61.1255 15.7074 60.5195 16.771C59.9134 17.8634 59.596 19.1571 59.596 20.6807C59.596 21.5431 59.7691 22.2043 60.1443 22.6355C60.5483 23.0955 61.039 23.3255 61.6162 23.3255Z" fill="#1D8946"/>
<path d="M81.9625 11.5965L78.7013 26.7752H72.8427L76.1039 11.5965H81.9625ZM83.1457 5.81827L82.3088 9.81417H76.4791L77.2872 5.81827H83.1457Z" fill="#1D8946"/>
<path d="M90.7359 13.9538C92.3521 12.1715 94.3146 11.2515 96.6234 11.2515C98.0087 11.2515 99.0476 11.5965 99.7114 12.3152C100.404 13.0051 100.75 13.8676 100.75 14.9025C100.75 15.5062 100.548 16.7136 100.173 18.4959L98.4127 26.7752H92.5541L94.0548 19.732C94.43 18.0072 94.6032 17.0298 94.6032 16.771C94.6032 15.9374 94.228 15.5062 93.4488 15.5062C92.583 15.5062 91.8326 15.9086 91.1977 16.7136C90.5628 17.5185 90.0722 18.6684 89.7547 20.192L88.3117 26.7752H82.4242L85.7143 11.5965H91.1977L90.7071 13.8963L90.7359 13.9538Z" fill="#1D8946"/>
<path d="M110.909 12.6889C111.573 12.1715 112.208 11.7977 112.814 11.5965C113.42 11.3665 114.199 11.2803 115.094 11.2803C116.854 11.2803 118.182 11.884 119.076 13.0626C119.971 14.2413 120.433 15.7649 120.433 17.6335C120.433 20.0483 119.769 22.2331 118.413 24.1879C117.085 26.1715 115.296 27.1489 113.102 27.1489C110.823 27.1489 109.149 26.2002 108.052 24.3029L107.504 26.8039H102.049L106.522 5.84702H112.352L110.909 12.6889ZM111.602 23.2105C112.439 23.2105 113.16 22.693 113.795 21.6294C114.401 20.5657 114.719 19.2433 114.719 17.6335C114.719 15.9086 114.026 15.0462 112.67 15.0462C111.688 15.0462 110.88 15.6212 110.274 16.7423C109.668 17.8634 109.38 19.1283 109.38 20.5082C109.38 21.3994 109.61 22.0606 110.072 22.4918C110.505 22.9805 111.025 23.2105 111.602 23.2105Z" fill="#F4742C"/>
<path d="M123.925 15.7649C124.271 14.3275 125.079 13.2064 126.349 12.4302C127.619 11.654 129.553 11.2515 132.208 11.2515C135.209 11.2515 137.229 11.6253 138.268 12.3727C139.307 13.1201 139.827 14.2125 139.827 15.6499C139.827 16.5986 139.567 18.1797 139.048 20.3645C138.557 22.4343 138.326 23.8717 138.326 24.6766C138.326 25.3665 138.442 26.0565 138.701 26.7752H132.987C132.843 26.1715 132.785 25.5965 132.785 25.0503C131.255 26.4302 129.553 27.1489 127.648 27.1489C125.714 27.1489 124.329 26.6889 123.492 25.7977C122.655 24.9066 122.222 23.8717 122.222 22.693C122.222 21.3419 122.597 20.3357 123.348 19.617C124.098 18.8984 125.022 18.4384 126.118 18.1797C127.215 17.9209 128.716 17.7197 130.62 17.5185C132.323 17.346 133.449 17.1735 133.997 17.001C134.113 16.5411 134.17 16.1961 134.17 15.9661C134.17 15.5924 133.968 15.2762 133.593 15.0462C133.218 14.8162 132.698 14.7012 132.063 14.7012C131.4 14.7012 130.851 14.8162 130.447 15.0175C130.043 15.2187 129.668 15.6786 129.351 16.3686L123.925 15.7649ZM133.42 19.9908C130.736 20.4507 129.149 20.8244 128.687 21.1694C128.225 21.5144 127.994 21.9168 127.994 22.3768C127.994 22.8655 128.167 23.2392 128.485 23.5267C128.831 23.8142 129.264 23.9579 129.784 23.9579C130.534 23.9579 131.255 23.6704 131.977 23.0667C132.67 22.463 133.16 21.4281 133.42 19.9908Z" fill="#F4742C"/>
<path d="M157.662 11.5965L156.912 15.0462L148.6 22.7793H155.96L155.152 26.7752H140.837L141.558 23.3542L150.014 15.5924H143.117L144.012 11.5965H157.662Z" fill="#F4742C"/>
<path d="M159.885 15.7649C160.231 14.3275 161.039 13.2064 162.309 12.4302C163.579 11.654 165.512 11.2515 168.167 11.2515C171.169 11.2515 173.189 11.6253 174.228 12.3727C175.267 13.1201 175.786 14.2125 175.786 15.6499C175.786 16.5986 175.527 18.1797 175.007 20.3645C174.517 22.4343 174.286 23.8717 174.286 24.6766C174.286 25.3665 174.401 26.0565 174.661 26.7752H168.947C168.802 26.1715 168.745 25.5965 168.745 25.0503C167.215 26.4302 165.512 27.1489 163.608 27.1489C161.674 27.1489 160.289 26.6889 159.452 25.7977C158.615 24.9066 158.182 23.8717 158.182 22.693C158.182 21.3419 158.557 20.3357 159.307 19.617C160.058 18.8984 160.981 18.4384 162.078 18.1797C163.175 17.9209 164.675 17.7197 166.58 17.5185C168.283 17.346 169.408 17.1735 169.957 17.001C170.072 16.5411 170.13 16.1961 170.13 15.9661C170.13 15.5924 169.928 15.2762 169.553 15.0462C169.177 14.8162 168.658 14.7012 168.023 14.7012C167.359 14.7012 166.811 14.8162 166.407 15.0175C166.003 15.2187 165.628 15.6786 165.31 16.3686L159.885 15.7649ZM169.38 19.9908C166.696 20.4507 165.108 20.8244 164.646 21.1694C164.185 21.5144 163.954 21.9168 163.954 22.3768C163.954 22.8655 164.127 23.2392 164.444 23.5267C164.791 23.8142 165.224 23.9579 165.743 23.9579C166.494 23.9579 167.215 23.6704 167.937 23.0667C168.629 22.463 169.12 21.4281 169.38 19.9908Z" fill="#F4742C"/>
<path d="M192.006 11.7115L189.841 16.1961C189.38 16.0811 188.975 16.0524 188.629 16.0524C187.504 16.0524 186.609 16.4548 185.887 17.2598C185.195 18.0647 184.646 19.3296 184.271 21.1119L183.059 26.8039H177.201L180.433 11.6253H185.916L185.281 14.5862L185.339 14.6437C186.263 13.2926 187.042 12.4014 187.734 11.9415C188.427 11.4815 189.178 11.2515 190.014 11.2515C190.621 11.2515 191.284 11.424 192.006 11.7115Z" fill="#F4742C"/>
</g>
</g>
</svg>
